<svg width="19" height="19" viewBox="0 0 19 19" fill="none" xmlns="http://www.w3.org/2000/svg">
<g id="Group">
<path id="Vector" d="M1.66667 4.79159H3.27083M3.27083 4.79159C3.69628 4.79159 4.10431 4.96059 4.40515 5.26143C4.70599 5.56227 4.875 5.9703 4.875 6.39575C4.875 6.8212 4.70599 7.22923 4.40515 7.53007C4.10431 7.83091 3.69628 7.99992 3.27083 7.99992H0.75M3.27083 4.79159C3.69628 4.79159 4.10431 4.62258 4.40515 4.32174C4.70599 4.0209 4.875 3.61287 4.875 3.18742C4.875 2.76197 4.70599 2.35394 4.40515 2.0531C4.10431 1.75226 3.69628 1.58325 3.27083 1.58325H0.75" stroke="#252B5C" stroke-width="1.4" stroke-linecap="round" stroke-linejoin="round"/>
<path id="Vector_2" d="M17.7998 11.3C17.7998 13.5735 14.5671 15.4439 10.4205 15.6758M1.2998 11.3C1.2998 13.5314 4.41389 15.3745 8.4498 15.6613L5.1498 17.9M8.4498 15.7L6.2498 12.62" stroke="#252B5C" stroke-width="1.4" stroke-linecap="round" stroke-linejoin="round"/>
<path id="Vector_3" d="M10.8332 1.58325H9.9165C9.18716 1.58325 8.48768 1.87298 7.97196 2.38871C7.45623 2.90443 7.1665 3.60391 7.1665 4.33325V6.16659M7.1665 6.16659C7.1665 6.65282 7.35966 7.11913 7.70348 7.46295C8.04729 7.80676 8.51361 7.99992 8.99984 7.99992H9.45817C9.9444 7.99992 10.4107 7.80676 10.7545 7.46295C11.0983 7.11913 11.2915 6.65282 11.2915 6.16659V5.70825C11.2915 5.22202 11.0983 4.75571 10.7545 4.41189C10.4107 4.06807 9.9444 3.87492 9.45817 3.87492H8.99984C8.51361 3.87492 8.04729 4.06807 7.70348 4.41189C7.35966 4.75571 7.1665 5.22202 7.1665 5.70825V6.16659Z" stroke="#252B5C" stroke-width="1.4" stroke-linecap="round" stroke-linejoin="round"/>
<path id="Vector_4" d="M13.5835 4.79159V3.41659C13.5835 2.93035 13.7767 2.46404 14.1205 2.12022C14.4643 1.77641 14.9306 1.58325 15.4168 1.58325H15.8752C16.3614 1.58325 16.8277 1.77641 17.1715 2.12022C17.5153 2.46404 17.7085 2.93035 17.7085 3.41659V6.16659C17.7085 6.65282 17.5153 7.11913 17.1715 7.46295C16.8277 7.80676 16.3614 7.99992 15.8752 7.99992H15.4168C14.9306 7.99992 14.4643 7.80676 14.1205 7.46295C13.7767 7.11913 13.5835 6.65282 13.5835 6.16659V4.79159Z" stroke="#252B5C" stroke-width="1.4" stroke-linecap="round" stroke-linejoin="round"/>
</g>
</svg>
