<svg width="18" height="19" viewBox="0 0 18 19" fill="none" xmlns="http://www.w3.org/2000/svg">
<g id="Group">
<path id="Vector" d="M11.5 3.33341V1.66675V3.33341ZM11.5 3.33341V5.00008V3.33341ZM11.5 3.33341H7.75H11.5ZM1.5 8.33341V15.8334C1.5 16.2754 1.67559 16.6994 1.98816 17.0119C2.30072 17.3245 2.72464 17.5001 3.16667 17.5001H14.8333C15.2754 17.5001 15.6993 17.3245 16.0118 17.0119C16.3244 16.6994 16.5 16.2754 16.5 15.8334V8.33341H1.5Z" stroke="#252B5C" stroke-width="1.6" stroke-linecap="round" stroke-linejoin="round"/>
<path id="Vector_2" d="M1.5 8.3335V5.00016C1.5 4.55814 1.67559 4.13421 1.98816 3.82165C2.30072 3.50909 2.72464 3.3335 3.16667 3.3335H4.83333" stroke="#252B5C" stroke-width="1.6" stroke-linecap="round" stroke-linejoin="round"/>
<path id="Vector_3" d="M4.83337 1.66675V5.00008" stroke="#252B5C" stroke-width="1.6" stroke-linecap="round" stroke-linejoin="round"/>
<path id="Vector_4" d="M16.5 8.3335V5.00016C16.5 4.55814 16.3244 4.13421 16.0118 3.82165C15.6992 3.50909 15.2753 3.3335 14.8333 3.3335H14.4166" stroke="#252B5C" stroke-width="1.6" stroke-linecap="round" stroke-linejoin="round"/>
</g>
</svg>
