<svg width="18" height="18" viewBox="0 0 18 18" fill="none" xmlns="http://www.w3.org/2000/svg">
<g id="Group">
<path id="Vector" d="M13.3053 10.1602C13.4516 10.1318 13.603 10.1449 13.7423 10.198L16.564 11.273C16.8742 11.3912 17.0792 11.6887 17.0792 12.0206V14.6257C17.0792 15.9554 15.9027 17.0528 14.5118 16.7507L14.5113 16.7506C12.2794 16.2644 8.10693 15.0243 5.17393 12.0913C2.35761 9.27497 1.42211 5.39767 1.1086 3.32068L13.3053 10.1602ZM13.3053 10.1602L10.5835 10.6876C8.91135 9.80914 7.91244 8.84334 7.29673 7.4395L7.81262 4.67249C7.83937 4.52901 7.82636 4.38095 7.77499 4.24433M13.3053 10.1602L7.77499 4.24433M7.77499 4.24433L6.7174 1.43136C6.60013 1.11944 6.3018 0.912891 5.96858 0.912891M7.77499 4.24433L5.96858 0.912891M5.96858 0.912891H3.2421M5.96858 0.912891H3.2421M3.2421 0.912891C1.98672 0.912891 0.904801 1.97401 1.10853 3.32017L3.2421 0.912891Z" stroke="#252B5C" stroke-width="1.6" stroke-linecap="round" stroke-linejoin="round"/>
</g>
</svg>
