<svg width="20" height="14" viewBox="0 0 20 14" fill="none" xmlns="http://www.w3.org/2000/svg">
<g id="Group">
<path id="Vector" d="M5.83325 4.5L9.99992 7.41667L14.1666 4.5" stroke="#252B5C" stroke-width="1.6" stroke-linecap="round" stroke-linejoin="round"/>
<path id="Vector_2" d="M1.66663 11.1667V2.83341C1.66663 2.39139 1.84222 1.96746 2.15478 1.6549C2.46734 1.34234 2.89127 1.16675 3.33329 1.16675H16.6666C17.1087 1.16675 17.5326 1.34234 17.8451 1.6549C18.1577 1.96746 18.3333 2.39139 18.3333 2.83341V11.1667C18.3333 11.6088 18.1577 12.0327 17.8451 12.3453C17.5326 12.6578 17.1087 12.8334 16.6666 12.8334H3.33329C2.89127 12.8334 2.46734 12.6578 2.15478 12.3453C1.84222 12.0327 1.66663 11.6088 1.66663 11.1667Z" stroke="#252B5C" stroke-width="1.6"/>
</g>
</svg>
