<svg width="5" height="19" viewBox="0 0 5 19" fill="none" xmlns="http://www.w3.org/2000/svg">
<path d="M1.771 12.2L1.171 0.499999H4.871L4.246 12.2H1.771ZM3.021 18.175C2.43766 18.175 1.95433 17.9833 1.571 17.6C1.18766 17.2167 0.995996 16.7583 0.995996 16.225C0.995996 15.6917 1.18766 15.2417 1.571 14.875C1.95433 14.4917 2.43766 14.3 3.021 14.3C3.60433 14.3 4.07933 14.4917 4.446 14.875C4.81266 15.2417 4.996 15.6917 4.996 16.225C4.996 16.7583 4.81266 17.2167 4.446 17.6C4.07933 17.9833 3.60433 18.175 3.021 18.175Z" fill="white"/>
</svg>
