<svg width="20" height="20" viewBox="0 0 20 20" fill="none" xmlns="http://www.w3.org/2000/svg">
<g id="Icon / House ">
<path id="Subtract" fill-rule="evenodd" clip-rule="evenodd" d="M9.49945 1.96719L9.46793 1.96694C9.02111 1.96694 8.58784 2.11467 8.2366 2.38558L8.23654 2.38563L2.6334 6.70647L2.63305 6.70673C2.15804 7.07262 1.87723 7.62879 1.86324 8.21933L2.59821 14.0005C2.67088 14.572 2.69768 14.7552 2.76685 14.9549C2.83809 15.1607 2.90042 15.2689 3.11167 15.6211C3.36213 16.0387 3.5066 16.1819 3.74937 16.4226L3.75878 16.4319C3.92898 16.6007 4.26235 16.7669 4.6982 16.8882C4.953 16.9591 5.20058 17.0031 5.40021 17.0268V15C5.40021 14.4106 5.56386 13.5621 6.10175 12.8151C6.69839 11.9864 7.67874 11.4 9.00021 11.4H10.0002C10.5896 11.4 11.438 11.5636 12.1851 12.1015C13.0138 12.6981 13.6002 13.6785 13.6002 15V17.0266C13.7996 17.0029 14.0466 16.9589 14.3007 16.8882C14.7366 16.7669 15.0699 16.6007 15.2401 16.4319L15.2495 16.4226C15.4923 16.1819 15.6368 16.0387 15.8872 15.6211C16.0985 15.2689 16.1608 15.1607 16.2321 14.9549C16.3012 14.7552 16.328 14.572 16.4007 14.0005L17.1357 8.21933C17.1217 7.62879 16.8409 7.07262 16.3659 6.70673L16.3655 6.70647L10.7624 2.38563L10.7623 2.38558C10.4111 2.11467 9.9778 1.96694 9.53098 1.96694L9.49947 1.96719V1.11861L11.7395 1.11865L17.3422 5.43917L17.3426 5.43944C18.2208 6.11608 18.7362 7.15892 18.7362 8.26566C18.7362 8.29939 18.7341 8.33309 18.7298 8.36655L17.9879 14.2023L17.9803 14.2621C17.918 14.7535 17.8734 15.1046 17.744 15.4784C17.6148 15.8517 17.4726 16.0887 17.2748 16.4183L17.2594 16.444C16.9091 17.0281 16.6609 17.2764 16.3666 17.5681C15.9064 18.0244 15.2577 18.2827 14.7297 18.4296C14.2719 18.557 13.8132 18.6254 13.4654 18.6438C13.4645 18.6458 13.4636 18.6478 13.4628 18.6498H12.0002V15.5C12.0002 15.0353 12.0002 14.803 11.9618 14.6098C11.804 13.8164 11.1838 13.1962 10.3904 13.0384C10.1972 13 9.96486 13 9.50021 13C9.03555 13 8.80323 13 8.61003 13.0384C7.81665 13.1962 7.19645 13.8164 7.03864 14.6098C7.00021 14.803 7.00021 15.0353 7.00021 15.5V18.6498H5.53767C5.5368 18.6478 5.53594 18.6459 5.53508 18.6439C5.18704 18.6256 4.72766 18.5572 4.26925 18.4296C3.74124 18.2827 3.09247 18.0244 2.63228 17.5681C2.338 17.2764 2.08981 17.0281 1.73952 16.444L1.72411 16.4183C1.52635 16.0887 1.38415 15.8517 1.25492 15.4784C1.12547 15.1046 1.08093 14.7535 1.01858 14.2621L1.01099 14.2023L0.269083 8.36655C0.264828 8.33309 0.262695 8.29939 0.262695 8.26566C0.262695 7.15892 0.778116 6.11608 1.65634 5.43944L1.65668 5.43917L7.25942 1.11865L9.49945 1.11861V1.96719ZM9.49945 1.11858L7.25948 1.11861C7.89167 0.631023 8.6688 0.366943 9.46793 0.366943L9.49945 0.36708V1.11858ZM9.49947 1.11858L11.7394 1.11861C11.1072 0.631023 10.3301 0.366943 9.53098 0.366943L9.49947 0.36708V1.11858Z" fill="#252B5C"/>
</g>
</svg>
