<svg width="16" height="19" viewBox="0 0 16 19" fill="none" xmlns="http://www.w3.org/2000/svg">
<g id="Group">
<path id="Vector" d="M14.6663 7.33329C14.6663 11.015 7.99967 17.3333 7.99967 17.3333C7.99967 17.3333 1.33301 11.015 1.33301 7.33329C1.33301 5.56518 2.03539 3.86949 3.28563 2.61925C4.53587 1.36901 6.23156 0.666626 7.99967 0.666626C9.76778 0.666626 11.4635 1.36901 12.7137 2.61925C13.964 3.86949 14.6663 5.56518 14.6663 7.33329V7.33329Z" stroke="#53587A" stroke-width="1.25"/>
<path id="Vector_2" d="M8 7.99988C8.26522 7.99988 8.51957 7.89452 8.70711 7.70698C8.89464 7.51945 9 7.26509 9 6.99988C9 6.73466 8.89464 6.48031 8.70711 6.29277C8.51957 6.10523 8.26522 5.99988 8 5.99988C7.73478 5.99988 7.48043 6.10523 7.29289 6.29277C7.10536 6.48031 7 6.73466 7 6.99988C7 7.26509 7.10536 7.51945 7.29289 7.70698C7.48043 7.89452 7.73478 7.99988 8 7.99988Z" fill="#53587A" stroke="#53587A" stroke-width="1.25" stroke-linecap="round" stroke-linejoin="round"/>
</g>
</svg>
