<svg width="17" height="18" viewBox="0 0 17 18" fill="none" xmlns="http://www.w3.org/2000/svg">
<g id="Group">
<path id="Vector" d="M13.7964 1.39156C12.9646 0.443547 11.4611 0.0371094 9.53772 0.0371094H3.95539C3.76509 0.0371164 3.58103 0.10501 3.4363 0.228585C3.29158 0.352159 3.19568 0.523308 3.16586 0.711261L0.841481 15.453C0.79528 15.7437 1.02038 16.0069 1.31501 16.0069H4.76134L5.62687 10.5171L5.60001 10.689C5.66167 10.3009 5.99355 10.0147 6.38656 10.0147H8.02425C11.2415 10.0147 13.7606 8.70797 14.4965 4.92779C14.5184 4.81598 14.5373 4.70717 14.5536 4.60086C14.4607 4.55167 14.4607 4.55167 14.5536 4.60086C14.7728 3.20367 14.5521 2.25261 13.7964 1.39156Z" fill="#27346A"/>
<path id="Vector_2" d="M6.94556 4.09754C7.03978 4.05268 7.14283 4.02943 7.24718 4.02949H11.6236C12.1419 4.02949 12.6252 4.06322 13.067 4.13431C13.1906 4.15402 13.3135 4.17755 13.4357 4.20487C13.6088 4.24307 13.7799 4.28982 13.9484 4.34496C14.1656 4.41749 14.3678 4.50195 14.5537 4.60086C14.7727 3.20313 14.5521 2.25261 13.7964 1.39156C12.9642 0.443547 11.4611 0.0371094 9.53771 0.0371094H3.95491C3.56185 0.0371094 3.22746 0.323269 3.16586 0.711261L0.841481 15.4525C0.79528 15.7436 1.02038 16.0065 1.31453 16.0065H4.76134L6.55703 4.61924C6.57469 4.50731 6.61928 4.40135 6.68696 4.31047C6.75464 4.2196 6.84338 4.14652 6.94556 4.09754Z" fill="#003087"/>
<path id="Vector_3" d="M14.4965 4.92776C13.7606 8.7074 11.2415 10.0147 8.02425 10.0147H6.38609C5.99308 10.0147 5.66114 10.3009 5.60007 10.689L4.5233 17.515C4.48307 17.7694 4.67981 17.9999 4.9372 17.9999H7.84237C8.00879 17.9998 8.16973 17.9404 8.29625 17.8323C8.42277 17.7242 8.50657 17.5745 8.53258 17.4101L8.56087 17.2621L9.10842 13.7919L9.1437 13.6001C9.16971 13.4358 9.2535 13.2861 9.38001 13.178C9.50652 13.0698 9.66744 13.0104 9.83385 13.0104H10.2686C13.0829 13.0104 15.2865 11.867 15.9305 8.56039C16.1993 7.17853 16.0602 6.02482 15.3491 5.21446C15.1335 4.96901 14.8656 4.76629 14.5536 4.60083C14.5367 4.70768 14.5184 4.81596 14.4965 4.92776Z" fill="#009CDE"/>
<path id="Vector_4" d="M13.7835 4.29392C13.6687 4.26041 13.5529 4.23075 13.4362 4.20498C13.314 4.1781 13.191 4.15474 13.0675 4.1349C12.6253 4.06333 12.1423 4.02954 11.6235 4.02954H7.24764C7.14321 4.02931 7.04008 4.05276 6.94602 4.09813C6.84373 4.14696 6.75488 4.21999 6.68717 4.31089C6.61946 4.4018 6.57493 4.50784 6.55743 4.61983L5.62733 10.5172L5.60046 10.6891C5.66165 10.3011 5.99353 10.0148 6.3866 10.0148H8.02476C11.242 10.0148 13.7611 8.70808 14.497 4.9279C14.5189 4.81609 14.5372 4.70775 14.5541 4.60097C14.3678 4.5026 14.1661 4.4176 13.9489 4.34555C13.8941 4.32738 13.8389 4.31016 13.7835 4.29392" fill="#012169"/>
</g>
</svg>
