<svg width="18" height="14" viewBox="0 0 18 14" fill="none" xmlns="http://www.w3.org/2000/svg">
<g id="Group">
<path id="Union" fill-rule="evenodd" clip-rule="evenodd" d="M9.80884 3.06208C9.80884 2.27661 10.4456 1.63986 11.2311 1.63986C12.0165 1.63986 12.6533 2.27661 12.6533 3.06208C12.6533 3.84755 12.0165 4.4843 11.2311 4.4843C10.4456 4.4843 9.80884 3.84755 9.80884 3.06208ZM8.29315 3.77392L1.71991 3.77384C1.27808 3.77383 0.919917 3.41566 0.919922 2.97383C0.919927 2.532 1.2781 2.17383 1.71993 2.17384L8.34145 2.17392C8.7208 0.938224 9.87102 0.039856 11.2311 0.039856C12.5909 0.039856 13.7409 0.937904 14.1205 2.17326L16.2976 2.17306C16.7395 2.17302 17.0977 2.53116 17.0977 2.97299C17.0977 3.41481 16.7396 3.77302 16.2978 3.77306L14.1691 3.77325C13.8493 5.09922 12.6552 6.0843 11.2311 6.0843C9.80713 6.0843 8.6132 5.09955 8.29315 3.77392Z" fill="#252B5C"/>
<path id="Union_2" fill-rule="evenodd" clip-rule="evenodd" d="M8.20877 10.8843C8.20877 10.0988 7.57202 9.46206 6.78654 9.46206C6.00107 9.46206 5.36432 10.0988 5.36432 10.8843C5.36432 11.6698 6.00107 12.3065 6.78654 12.3065C7.57202 12.3065 8.20877 11.6698 8.20877 10.8843ZM9.72445 11.5961L16.2977 11.596C16.7395 11.596 17.0977 11.2379 17.0977 10.796C17.0977 10.3542 16.7395 9.99604 16.2976 9.99605L9.67616 9.99612C9.2968 8.76043 8.14659 7.86206 6.78654 7.86206C5.42675 7.86206 4.2767 8.76011 3.89714 9.99546L1.71994 9.99526C1.27811 9.99522 0.91991 10.3534 0.919868 10.7952C0.919828 11.237 1.27797 11.5952 1.7198 11.5953L3.84848 11.5955C4.16829 12.9214 5.36238 13.9065 6.78654 13.9065C8.21047 13.9065 9.4044 12.9217 9.72445 11.5961Z" fill="#252B5C"/>
</g>
</svg>
