<svg width="20" height="21" viewBox="0 0 20 21" fill="none" xmlns="http://www.w3.org/2000/svg">
<path d="M4.86123 20.1C4.86123 19.875 4.83623 19.775 4.73623 19.775L4.16123 20.05C4.16123 19.925 4.08623 19.85 3.96123 19.8L3.76123 19.775C3.58623 19.775 3.51123 19.8 3.26123 19.95C3.18623 19.8 3.08623 19.625 3.01123 19.475C2.36123 18.225 1.68623 16.35 1.38623 15.525C1.23623 15.1 1.08623 14.225 0.911231 12.9C1.11123 13.025 1.26123 13.075 1.33623 13.075C1.43623 13.075 1.56123 12.9 1.66123 12.55C1.71123 12.625 1.81123 12.65 1.93623 12.65C2.01123 12.65 2.11123 12.625 2.16123 12.55L2.56123 11.95L3.01123 12.1H3.03623C3.08623 12.1 3.16123 12.025 3.28623 11.95C3.41123 11.875 3.51123 11.825 3.58623 11.825L3.66123 11.85C4.06123 12.05 4.33623 12.4 4.46123 12.95C4.76123 14.225 5.03623 14.85 5.36123 14.85C5.63623 14.85 6.01123 14.525 6.41123 13.9C6.81123 13.275 7.21123 12.425 7.66123 11.4C7.68623 11.6 7.71123 11.7 7.76123 11.7C7.91123 11.7 8.28623 10.825 9.21123 9.35C10.5862 7.125 13.9862 2.85 14.8612 2.25C15.5112 1.8 16.0112 1.375 16.3612 0.999999C16.3112 1.25 16.2612 1.425 16.2612 1.5C16.2612 1.575 16.3112 1.6 16.3612 1.6L17.0612 1.25V1.35C17.0612 1.475 17.0862 1.55 17.1612 1.55C17.2612 1.55 17.6612 1.15 17.7112 0.999999L17.6612 1.35L18.5112 0.85L18.3112 1.3C18.5612 1.125 18.7612 1.025 18.8862 1.025C19.0112 1.025 19.0862 1.225 19.0862 1.35C19.0862 1.55 18.9112 1.825 18.6362 2.175C18.3362 2.575 17.5862 3.35 15.3362 5.925C14.3612 7.025 10.0362 12.9 9.21123 14.3L7.66123 16.925C6.98623 18.05 6.56123 18.775 6.33623 19.05C6.11123 19.325 5.83623 19.6 5.51123 19.85L5.28623 19.725L5.08623 19.85L4.86123 20.1Z" fill="white"/>
</svg>
