<svg width="25" height="20" viewBox="0 0 25 20" fill="none" xmlns="http://www.w3.org/2000/svg">
<g id="Logo / Visa - Normal">
<path id="Vector" d="M9.61222 5.14128L6.47 12.8786H4.42006L2.87375 6.70348C2.78 6.32406 2.69853 6.18443 2.41325 6.02399C1.94694 5.76252 1.17687 5.51799 0.5 5.36588L0.545656 5.14128H3.84603C4.26603 5.14128 4.64422 5.42993 4.74041 5.92974L5.55744 10.4074L7.57456 5.14128H9.61222ZM12.3835 5.14128L10.7801 12.8786H8.84056L10.4442 5.14128H12.3835ZM17.6443 10.3524C17.6524 8.31068 14.9093 8.19737 14.9272 7.28515C14.9338 7.00781 15.1897 6.71258 15.7499 6.6371C16.0274 6.60004 16.7941 6.57052 17.6625 6.98353L18.0023 5.34178C17.5357 5.1676 16.9352 5 16.1883 5C14.2711 5 12.9225 6.05108 12.9117 7.55735C12.8992 8.67153 13.875 9.29248 14.6089 9.66358C15.3648 10.0425 15.6183 10.2861 15.6148 10.6248C15.6094 11.1439 15.0111 11.3737 14.4549 11.3823C13.4795 11.3982 12.9141 11.1101 12.4631 10.8933L12.111 12.5894C12.5648 12.804 13.401 12.9905 14.2672 13C16.3053 13 17.6383 11.9609 17.6443 10.3524ZM22.7068 12.8786H24.5L22.9334 5.14128H21.279C20.9059 5.14128 20.5923 5.36481 20.4532 5.70843L17.5432 12.8786H19.5797L19.9837 11.7228H22.4718L22.7068 12.8786ZM20.5422 10.1373L21.5633 7.23164L22.1499 10.1373H20.5422Z" fill="#1A1F71"/>
</g>
</svg>
