<svg width="20" height="14" viewBox="0 0 20 14" fill="none" xmlns="http://www.w3.org/2000/svg">
<g id="Group">
<path id="Vector" d="M1.66663 4.50008H18.3333M1.66663 4.50008V1.66675C1.66663 1.53414 1.7193 1.40696 1.81307 1.31319C1.90684 1.21943 2.03402 1.16675 2.16663 1.16675H17.8333C17.9659 1.16675 18.0931 1.21943 18.1868 1.31319C18.2806 1.40696 18.3333 1.53414 18.3333 1.66675V4.50008H1.66663ZM1.66663 4.50008V12.3334C1.66663 12.466 1.7193 12.5932 1.81307 12.687C1.90684 12.7807 2.03402 12.8334 2.16663 12.8334H17.8333C17.9659 12.8334 18.0931 12.7807 18.1868 12.687C18.2806 12.5932 18.3333 12.466 18.3333 12.3334V4.50008H1.66663Z" stroke="#252B5C" stroke-width="1.6" stroke-linecap="round" stroke-linejoin="round"/>
</g>
</svg>
