<svg width="17" height="20" viewBox="0 0 17 20" fill="none" xmlns="http://www.w3.org/2000/svg">
<g id="ic:baseline-water-drop">
<path id="Vector" d="M10.0002 1.66675C5.5585 5.45841 3.3335 8.73341 3.3335 11.5001C3.3335 15.6501 6.50016 18.3334 10.0002 18.3334C13.5002 18.3334 16.6668 15.6501 16.6668 11.5001C16.6668 8.73341 14.4418 5.45841 10.0002 1.66675ZM6.52516 11.6667C6.8335 11.6667 7.0835 11.8834 7.14183 12.1834C7.4835 14.0334 9.04183 14.6667 10.1752 14.5751C10.5335 14.5584 10.8335 14.8417 10.8335 15.2001C10.8335 15.5334 10.5668 15.8084 10.2335 15.8251C8.4585 15.9334 6.3835 14.9167 5.9085 12.3917C5.89401 12.3024 5.89911 12.211 5.92343 12.1238C5.94776 12.0366 5.99072 11.9558 6.04937 11.8868C6.10801 11.8179 6.18093 11.7625 6.26308 11.7245C6.34523 11.6865 6.43465 11.6668 6.52516 11.6667Z" fill="#8BC83F"/>
</g>
</svg>
